<?xml version="1.0" encoding="UTF-8"?>
<!DOCTYPE svg PUBLIC "-//W3C//DTD SVG 1.1//EN" "http://www.w3.org/Graphics/SVG/1.1/DTD/svg11.dtd">
<!-- Creator: CorelDRAW -->
<svg xmlns="http://www.w3.org/2000/svg" xml:space="preserve" width="6.69287in" height="0.932323in" version="1.1" style="shape-rendering:geometricPrecision; text-rendering:geometricPrecision; image-rendering:optimizeQuality; fill-rule:evenodd; clip-rule:evenodd"
viewBox="0 0 6692.87 932.32"
 xmlns:xlink="http://www.w3.org/1999/xlink"
 xmlns:xodm="http://www.corel.com/coreldraw/odm/2003">
 <defs>
  <style type="text/css">
   <![CDATA[
    .fil1 {fill:#5459E8}
    .fil0 {fill:#C92B2E}
    .fil3 {fill:#5459E8;fill-rule:nonzero}
    .fil2 {fill:#FE753E;fill-rule:nonzero}
    .fil4 {fill:#FE753E;fill-rule:nonzero}
   ]]>
  </style>
 </defs>
 <g id="Layer_x0020_1">
  <metadata id="CorelCorpID_0Corel-Layer"/>
  <g id="_2360610044080">
   <g>
    <polygon class="fil0" points="408.42,724.06 403.64,723.19 399.21,724 399.21,920.1 403.48,922.57 408.42,919.72 "/>
    <polygon class="fil1" points="403.48,154.29 465.21,296.39 541.65,252.5 500.78,453.8 608.24,362.61 629.43,422.02 722.51,407.64 674.91,520.32 734.4,590.15 674.64,623.23 567.4,684.42 566.26,685.06 582.52,755.75 426.23,727.3 426.23,919.7 605.33,816.29 807.19,699.74 807.19,233.58 605.33,117.04 403.48,0.5 201.63,117.04 -0.23,233.58 -0.23,699.74 201.63,816.29 381.4,920.08 381.4,727.23 224.45,755.75 240.71,685.06 239.57,684.42 132.33,623.23 72.56,590.15 132.06,520.32 84.45,407.64 177.53,422.02 198.72,362.61 306.18,453.8 265.31,252.5 341.75,296.39 "/>
    <path class="fil2" d="M390.31 549.08l0 -28.7 -47.44 0c-12.1,0 -21.82,2.02 -29.16,6.03 -7.32,4 -12.62,9.55 -15.93,16.59 -3.31,7.04 -4.95,15.02 -4.95,23.95 0,8.94 1.63,16.91 4.95,24 3.31,7.05 8.58,12.67 15.83,16.8 7.25,4.13 16.85,6.2 28.85,6.18l47.85 -0.09 0 -64.76zm85.01 -77.52l-57.99 0 0 24.87 48.31 0c17.46,0 31.76,3.17 42.9,9.44 11.13,6.28 19.41,14.71 24.77,25.38 5.36,10.67 8.07,22.57 8.07,35.69 0,13.13 -2.68,25.07 -8.02,35.8 -5.33,10.71 -13.53,19.32 -24.61,25.63 -11.12,6.34 -25.34,9.5 -42.69,9.5l-36.94 0 -8.02 0 -3.76 0 0 35.89 0 251.07 -13.84 7.99 -13.18 -7.61 0 -251.45 0 -35.89 -48.72 0c-17.36,0 -31.57,-3.16 -42.69,-9.5 -11.09,-6.31 -19.28,-14.93 -24.61,-25.63 -5.34,-10.73 -8.02,-22.67 -8.02,-35.8 0,-13.12 2.71,-25.02 8.07,-35.69 5.36,-10.67 13.63,-19.1 24.77,-25.38 11.13,-6.28 25.43,-9.44 42.9,-9.44l48.31 0 0 -24.87 -57.99 0 0 -27.01 57.99 0 27.02 0 57.99 0 0 27.01zm-57.99 48.82l0 28.7 0 64.85 3.76 0 8.02 0 36.07 0c12,0 21.61,-2.05 28.85,-6.18 7.25,-4.13 12.52,-9.75 15.83,-16.8 3.33,-7.09 4.95,-15.07 4.95,-24 0,-8.93 -1.64,-16.91 -4.95,-23.95 -3.31,-7.04 -8.62,-12.59 -15.93,-16.59 -7.33,-4.01 -17.06,-6.03 -29.16,-6.03l-47.44 0z"/>
   </g>
   <g>
    <path class="fil3" d="M1343.74 708.1c96.3,0 161.59,-45.7 207.3,-107.73l-57.94 -31.83c-31.01,46.52 -87.33,79.17 -149.35,79.17 -119.16,0 -209.74,-92.22 -209.74,-221.17 0,-129.76 90.59,-221.17 209.74,-221.17 62.02,0 118.34,33.46 149.35,79.17l57.13 -31.83c-43.26,-61.21 -110.18,-107.73 -206.48,-107.73 -156.7,0 -279.93,114.26 -279.93,281.56 0,167.31 123.24,281.57 279.93,281.57zm321.55 -460.3c22.85,0 41.62,-17.96 41.62,-40.81 0,-22.85 -18.77,-41.62 -41.62,-41.62 -22.04,0 -40.81,18.77 -40.81,41.62 0,22.85 18.77,40.81 40.81,40.81zm31.01 450.5l0 -394.19 -61.21 0 0 394.19 61.21 0zm221.99 9.8c35.91,0 57.94,-10.61 73.45,-25.3l-17.96 -45.7c-8.16,8.98 -24.48,16.32 -41.62,16.32 -26.93,0 -39.99,-21.22 -39.99,-50.6l0 -244.83 79.98 0 0 -53.87 -79.98 0 0 -107.73 -61.21 0 0 107.73 -65.29 0 0 53.87 65.29 0 0 257.89c0,58.76 29.38,92.22 87.32,92.22zm170.57 -460.3c22.85,0 41.62,-17.96 41.62,-40.81 0,-22.85 -18.77,-41.62 -41.62,-41.62 -22.04,0 -40.81,18.77 -40.81,41.62 0,22.85 18.77,40.81 40.81,40.81zm31.01 450.5l0 -394.19 -61.21 0 0 394.19 61.21 0zm403.98 0l0 -53.05 -221.98 0 218.72 -294.62 0 -46.52 -297.07 0 0 53.87 217.09 0 -217.09 292.99 0 47.33 300.33 0zm281.57 9.8c64.47,0 117.52,-21.22 156.7,-60.39l-29.38 -39.99c-31.01,31.83 -76.72,49.78 -121.6,49.78 -84.88,0 -137.11,-62.02 -142.01,-136.29l319.11 0 0 -15.51c0,-118.34 -70.19,-211.38 -189.34,-211.38 -112.62,0 -194.24,92.22 -194.24,206.48 0,123.24 84.06,207.3 200.77,207.3zm122.42 -231.78l-258.71 0c3.26,-60.39 44.89,-131.39 128.95,-131.39 89.78,0 128.95,72.63 129.76,131.39zm486.41 221.99l0 -276.67c0,-85.69 -43.26,-127.32 -125.69,-127.32 -58.76,0 -112.63,34.28 -140.37,66.93l0 -57.13 -61.21 0 0 394.19 61.21 0 0 -288.09c22.85,-31.83 68.56,-61.21 116.71,-61.21 53.05,0 88.14,22.04 88.14,91.41l0 257.9 61.21 0z"/>
    <path class="fil4" d="M3771.72 698.3l0 -442.34 158.33 0 0 -102.02 -434.19 0 0 102.02 159.15 0 0 442.34 116.7 0zm335.43 9.8c61.21,0 123.24,-18.77 162.41,-54.68l-45.7 -66.93c-25.3,24.48 -71.82,39.18 -105.28,39.18 -66.92,0 -106.91,-41.62 -113.44,-91.41l292.99 0 0 -22.85c0,-128.95 -79.98,-217.09 -197.5,-217.09 -119.97,0 -204.03,92.22 -204.03,206.48 0,126.5 90.59,207.3 210.56,207.3zm90.59 -244.02l-194.24 0c4.9,-39.17 32.65,-87.33 97.12,-87.33 68.56,0 94.67,49.78 97.12,87.33zm317.47 244.02c109.36,0 170.57,-54.68 170.57,-126.5 0,-159.15 -233.41,-110.18 -233.41,-168.94 0,-22.04 24.48,-39.17 62.03,-39.17 48.15,0 93.04,20.41 116.7,45.7l41.62 -71c-39.17,-31.01 -92.22,-53.87 -159.14,-53.87 -103.65,0 -161.59,57.94 -161.59,124.05 0,155.07 234.23,102.02 234.23,167.31 0,24.48 -21.22,42.44 -66.11,42.44 -48.97,0 -107.73,-26.93 -136.3,-53.87l-44.89 72.63c41.62,38.36 107.73,61.21 176.28,61.21zm379.5 0c43.25,0 71,-11.43 86.51,-25.3l-22.04 -78.35c-5.71,5.71 -20.4,11.43 -35.91,11.43 -22.85,0 -35.91,-18.77 -35.91,-43.26l0 -177.91 79.98 0 0 -90.59 -79.98 0 0 -107.73 -104.46 0 0 107.73 -65.29 0 0 90.59 65.29 0 0 205.66c0,70.19 39.17,107.73 111.81,107.73zm261.98 -9.8l0 -193.42 138.74 0c117.52,0 182.81,-80.8 182.81,-175.47 0,-95.48 -64.47,-175.46 -182.81,-175.46l-254.63 0 0 544.35 115.89 0zm123.23 -295.44l-123.23 0 0 -146.9 123.23 0c45.7,0 79.98,27.75 79.98,73.45 0,44.89 -34.28,73.45 -79.98,73.45zm371.34 295.44l0 -260.34c17.14,-25.3 62.84,-44.89 97.12,-44.89 11.43,0 21.22,0.82 28.57,2.45l0 -101.2c-48.97,0 -97.94,28.57 -125.69,63.66l0 -53.87 -103.65 0 0 394.19 103.65 0zm375.42 9.8c61.21,0 123.24,-18.77 162.41,-54.68l-45.7 -66.93c-25.3,24.48 -71.82,39.18 -105.28,39.18 -66.92,0 -106.91,-41.62 -113.44,-91.41l292.99 0 0 -22.85c0,-128.95 -79.98,-217.09 -197.5,-217.09 -119.97,0 -204.03,92.22 -204.03,206.48 0,126.5 90.59,207.3 210.56,207.3zm90.59 -244.02l-194.24 0c4.9,-39.17 32.65,-87.33 97.12,-87.33 68.56,0 94.67,49.78 97.12,87.33zm400.72 244.02c101.2,0 174.66,-75.9 174.66,-207.3 0,-131.39 -73.46,-206.48 -174.66,-206.48 -48.15,0 -91.41,21.22 -121.6,59.58l0 -49.78 -103.65 0 0 544.35 103.65 0 0 -200.76c31.83,40.8 75.08,60.39 121.6,60.39zm-32.64 -92.22c-33.46,0 -71.82,-20.4 -88.96,-44.89l0 -139.56c17.14,-25.3 55.5,-44.89 88.96,-44.89 59.57,0 99.57,46.52 99.57,114.26 0,68.56 -39.99,115.07 -99.57,115.07z"/>
   </g>
  </g>
 </g>
</svg>
