<?xml version="1.0" encoding="UTF-8"?>
<svg version="1.1" xmlns="http://www.w3.org/2000/svg" width="602" height="84">
<path d="M0 0 C3.17211914 1.53466797 3.17211914 1.53466797 6.53515625 3.4921875 C7.13629745 3.83879425 7.73743866 4.185401 8.35679626 4.54251099 C10.26380977 5.64479102 12.16311143 6.75964312 14.0625 7.875 C15.34131258 8.61672102 16.62060556 9.35761444 17.90039062 10.09765625 C21.27437761 12.05253024 24.64070596 14.01994913 28 16 C28.94697754 16.36794678 29.89395508 16.73589355 30.86962891 17.11499023 C33 19 33 19 33.42192078 20.96148682 C33.58264481 23.62887623 33.56107857 26.24668353 33.48828125 28.91796875 C33.48120651 29.89034988 33.47413177 30.86273102 33.46684265 31.86457825 C33.43883408 34.97299862 33.37608275 38.07962334 33.3125 41.1875 C33.28742553 43.29359379 33.26461088 45.3997158 33.24414062 47.50585938 C33.18898599 52.67126571 33.10266795 57.83532835 33 63 C29.46255395 65.04564528 25.92452372 67.09027627 22.38598633 69.1340332 C21.18628732 69.82712481 19.98673882 70.520477 18.78735352 71.21411133 C18.20848389 71.54886475 17.62961426 71.88361816 17.03320312 72.22851562 C16.45871429 72.56078156 15.88422546 72.89304749 15.29232788 73.23538208 C13.58321003 74.22078047 11.86998939 75.1990516 10.15673828 76.17724609 C8.20646885 77.30336455 6.26924079 78.45286296 4.35498047 79.63916016 C-1.14356844 82.97381611 -1.14356844 82.97381611 -5.06640625 83.09375 C-8.9795785 81.63477766 -12.39098316 79.69059273 -15.9375 77.5 C-16.59556641 77.10296875 -17.25363281 76.7059375 -17.93164062 76.296875 C-19.39346797 75.41405662 -20.84025564 74.50605858 -22.2746582 73.5793457 C-24.469689 72.3073172 -26.4921599 71.36205856 -28.82495117 70.41088867 C-33.79013073 68.21545138 -38.67258573 66.03639453 -40.9491272 60.82891846 C-42.62899763 54.39925464 -42.5870345 47.91418623 -42.4375 41.3125 C-42.43538513 40.31377869 -42.43327026 39.31505737 -42.43109131 38.28607178 C-42.24412039 21.26551994 -42.24412039 21.26551994 -37.73974609 15.67822266 C-32.24208113 10.80968681 -25.99184278 8.28639231 -19.05175781 6.10253906 C-15.05059521 4.65699904 -11.7888078 2.49937518 -8.32958984 0.05224609 C-5.09764331 -1.40758304 -3.38952612 -0.95957492 0 0 Z M-4 15 C-4.67408308 16.26691507 -5.33900497 17.53870749 -6 18.8125 C-6.37125 19.52019531 -6.7425 20.22789063 -7.125 20.95703125 C-8.19685358 23.08920729 -8.19685358 23.08920729 -8 26 C-10.31 25.01 -12.62 24.02 -15 23 C-14.48517081 28.852795 -13.54642808 34.3297637 -12 40 C-14.97 37.69 -17.94 35.38 -21 33 C-21.66 34.32 -22.32 35.64 -23 37 C-25.64 37 -28.28 37 -31 37 C-30.4740625 38.299375 -30.4740625 38.299375 -29.9375 39.625 C-28.45051585 44.97814293 -29.54954135 48.0990827 -32 53 C-27.71 55.31 -23.42 57.62 -19 60 C-19 61.98 -19 63.96 -19 66 C-17.41632253 65.85795259 -15.83306682 65.71119847 -14.25 65.5625 C-13.36828125 65.48128906 -12.4865625 65.40007812 -11.578125 65.31640625 C-9.30649548 65.03761535 -7.20148177 64.61209423 -5 64 C-5 61.69 -5 59.38 -5 57 C-5.62648438 56.92523438 -6.25296875 56.85046875 -6.8984375 56.7734375 C-9.39963353 56.37103688 -11.63464865 55.91339615 -14 55 C-15.6875 52.125 -15.6875 52.125 -16 49 C-15.30859375 46.8828125 -15.30859375 46.8828125 -14 45 C-11.8359375 44.171875 -11.8359375 44.171875 -9.375 43.75 C-8.55773437 43.60046875 -7.74046875 43.4509375 -6.8984375 43.296875 C-5.95871094 43.14992188 -5.95871094 43.14992188 -5 43 C-5 42.67 -5 42.34 -5 42 C-6.98 42 -8.96 42 -11 42 C-11 41.01 -11 40.02 -11 39 C-6.38 39 -1.76 39 3 39 C3 39.99 3 40.98 3 42 C1.35 42 -0.3 42 -2 42 C-2 42.33 -2 42.66 -2 43 C-1.36191406 43.12117188 -0.72382812 43.24234375 -0.06640625 43.3671875 C0.75988281 43.53476562 1.58617187 43.70234375 2.4375 43.875 C3.26121094 44.03742187 4.08492187 44.19984375 4.93359375 44.3671875 C5.95646484 44.68042969 5.95646484 44.68042969 7 45 C8.52150158 48.04300316 8.23899393 50.654085 8 54 C4.55549263 56.29633824 2.06187717 56.54016485 -2 57 C-2 59.31 -2 61.62 -2 64 C-0.58461283 64.33872513 0.83237963 64.67074624 2.25 65 C3.03890625 65.185625 3.8278125 65.37125 4.640625 65.5625 C7.25556002 66.12154828 7.25556002 66.12154828 11 66 C10.855625 65.27425781 10.71125 64.54851562 10.5625 63.80078125 C11 61 11 61 14.0625 58.54296875 C15.36390236 57.73955199 16.67707021 56.95495251 18 56.1875 C18.66773438 55.78080078 19.33546875 55.37410156 20.0234375 54.95507812 C21.67255135 53.95383043 23.3350819 52.97474159 25 52 C24.31421875 51.28457031 23.6284375 50.56914063 22.921875 49.83203125 C21 47 21 47 21.265625 44.32421875 C21.59046875 43.45410156 21.9153125 42.58398438 22.25 41.6875 C22.72179688 40.36298828 22.72179688 40.36298828 23.203125 39.01171875 C23.46609375 38.34785156 23.7290625 37.68398438 24 37 C20.97265625 36.75585938 20.97265625 36.75585938 17.9453125 36.51171875 C16 36 16 36 14 33 C9.545 36.465 9.545 36.465 5 40 C5.99 34.39 6.98 28.78 8 23 C5.69 23.99 3.38 24.98 1 26 C0.80664062 25.37351562 0.61328125 24.74703125 0.4140625 24.1015625 C0.02347656 22.87566406 0.02347656 22.87566406 -0.375 21.625 C-0.63023438 20.81289063 -0.88546875 20.00078125 -1.1484375 19.1640625 C-1.89854283 16.83540815 -1.89854283 16.83540815 -4 15 Z M-13 48 C-12.62095792 51.29075996 -12.62095792 51.29075996 -11 54 C-9.00041636 54.04080783 -6.99954746 54.04254356 -5 54 C-5 51.36 -5 48.72 -5 46 C-8.71599191 45.79913557 -9.77208445 45.8480563 -13 48 Z M-2 46 C-2 48.64 -2 51.28 -2 54 C1.465 53.505 1.465 53.505 5 53 C5.77242269 51.16299211 5.77242269 51.16299211 6 49 C4.96040481 47.12640605 4.96040481 47.12640605 3 46 C0.37429296 45.74930087 0.37429296 45.74930087 -2 46 Z " fill="#5358E8" transform="translate(40,1)"/>
<path d="M0 0 C25 0 25 0 34 3 C38.24983242 7.33837059 40.15809474 10.13507792 40.375 16.125 C40.31675003 21.05683048 39.38411889 24.20099624 36.77734375 28.34375 C31.56759567 33.19854821 25.79275277 33.41063503 19.0625 33.1875 C15.0715625 33.0946875 15.0715625 33.0946875 11 33 C11 38.61 11 44.22 11 50 C7.37 50 3.74 50 0 50 C0 33.5 0 17 0 0 Z M11 11 C11 14.96 11 18.92 11 23 C13.08268593 23.08126087 15.16628658 23.13930839 17.25 23.1875 C18.41015625 23.22230469 19.5703125 23.25710937 20.765625 23.29296875 C24.25032802 22.97732536 25.5423265 22.42239589 28 20 C29.15321117 17.44646097 29.16698688 16.44958006 28.1875 13.8125 C27.11878013 11.84977807 27.11878013 11.84977807 25 11 C22.62597499 10.92883618 20.24999323 10.91590915 17.875 10.9375 C16.59367187 10.94652344 15.31234375 10.95554687 13.9921875 10.96484375 C13.00476563 10.97644531 12.01734375 10.98804688 11 11 Z " fill="#FE743D" transform="translate(453,13)"/>
<path d="M0 0 C4.52502315 1.89595942 7.31101817 4.21370179 9.21875 8.7734375 C10.96809559 16.02072637 11.53011602 24.51568385 7.66015625 31.12890625 C5.35018844 34.07235553 3.44762339 36.12674377 -0.15234375 37.37890625 C-6.79711044 38.08152508 -10.27173619 37.90727079 -16.15234375 34.37890625 C-16.15234375 39.65890625 -16.15234375 44.93890625 -16.15234375 50.37890625 C-19.45234375 50.37890625 -22.75234375 50.37890625 -26.15234375 50.37890625 C-26.15234375 33.87890625 -26.15234375 17.37890625 -26.15234375 0.37890625 C-22.85234375 0.37890625 -19.55234375 0.37890625 -16.15234375 0.37890625 C-15.82234375 1.03890625 -15.49234375 1.69890625 -15.15234375 2.37890625 C-14.49234375 1.88390625 -13.83234375 1.38890625 -13.15234375 0.87890625 C-8.62877468 -1.38287828 -4.7517343 -1.37119011 0 0 Z M-16.15234375 11.37890625 C-16.28723766 13.64812161 -16.3842837 15.91961295 -16.46484375 18.19140625 C-16.52285156 19.45597656 -16.58085938 20.72054687 -16.640625 22.0234375 C-16.51027256 25.50922593 -16.51027256 25.50922593 -13.859375 27.33203125 C-10.18572909 28.75271971 -7.92002887 28.42548545 -4.15234375 27.37890625 C-1.53667933 25.11199709 -1.15000008 23.36986638 -0.27734375 20.00390625 C-0.13234226 15.79886298 -0.81387053 13.84629758 -3.15234375 10.37890625 C-8.02633515 7.02803716 -11.28018858 8.78042349 -16.15234375 11.37890625 Z " fill="#FE743D" transform="translate(592.15234375,26.62109375)"/>
<path d="M0 0 C4.90856928 3.40594603 6.53960844 7.47724806 7.72265625 13.1953125 C7.72265625 15.5053125 7.72265625 17.8153125 7.72265625 20.1953125 C-0.85734375 20.1953125 -9.43734375 20.1953125 -18.27734375 20.1953125 C-14.89924328 25.43751487 -14.89924328 25.43751487 -10.46484375 26.1953125 C-6.06532793 26.51722829 -3.14167654 25.20798583 0.72265625 23.1953125 C4.66052607 27.49117049 4.66052607 27.49117049 4.91015625 30.3203125 C2.90798562 33.48163454 0.2159276 34.39006421 -3.27734375 35.1953125 C-9.98789578 35.90303273 -16.70091509 36.19126141 -22.62109375 32.56640625 C-26.90764655 29.01786843 -28.97752163 25.55641167 -29.68359375 19.99609375 C-29.84344768 14.15476468 -29.90039992 9.02605405 -26.27734375 4.1953125 C-18.43395443 -3.30705989 -9.70142188 -5.51611662 0 0 Z M-17.27734375 8.1953125 C-17.60734375 9.5153125 -17.93734375 10.8353125 -18.27734375 12.1953125 C-13.32734375 12.1953125 -8.37734375 12.1953125 -3.27734375 12.1953125 C-3.90576348 8.2238956 -3.90576348 8.2238956 -6.27734375 6.1953125 C-10.78825412 4.56637264 -13.34648732 5.60452076 -17.27734375 8.1953125 Z " fill="#FE743D" transform="translate(552.27734375,28.8046875)"/>
<path d="M0 0 C4.57346362 2.6385367 6.9382414 5.56380627 9.5625 10.1875 C10.25 12.875 10.25 12.875 10.25 21.875 C-2.125 22.37 -2.125 22.37 -14.75 22.875 C-12.17191093 27.18827518 -12.17191093 27.18827518 -8 27.8125 C-3.54360813 28.19211857 -0.66795479 26.91560145 3.25 24.875 C7.18786982 29.17085799 7.18786982 29.17085799 7.4375 32 C5.43541441 35.16118778 2.74354381 36.0710222 -0.75 36.875 C-8.44521261 37.67739026 -14.54874287 37.75684072 -20.75 32.875 C-25.83121191 27.51912798 -27.22857206 22.69562332 -27.06640625 15.44140625 C-26.40395801 10.06821494 -24.14879372 6.23792722 -20.3125 2.5 C-13.61154147 -1.74938834 -7.57852043 -2.27355613 0 0 Z M-11.5 8 C-14.10429522 9.91555905 -14.10429522 9.91555905 -15.75 13.875 C-10.47 13.875 -5.19 13.875 0.25 13.875 C-2.16646053 8.86108981 -2.16646053 8.86108981 -5.625 7.375 C-8.75079622 6.59704981 -8.75079622 6.59704981 -11.5 8 Z " fill="#FE743D" transform="translate(376.75,27.125)"/>
<path d="M0 0 C13.2 0 26.4 0 40 0 C40 3.63 40 7.26 40 11 C35.38 11 30.76 11 26 11 C26 23.87 26 36.74 26 50 C22.04 50 18.08 50 14 50 C14 37.13 14 24.26 14 11 C9.38 11 4.76 11 0 11 C0 7.37 0 3.74 0 0 Z " fill="#FE753D" transform="translate(314,13)"/>
<path d="M0 0 C0.99 1.485 0.99 1.485 2 3 C0.02 5.97 0.02 5.97 -2 9 C-2.66 8.690625 -3.32 8.38125 -4 8.0625 C-7.74515563 6.73609071 -11.03592212 6.32492442 -15 6 C-15.99 6.495 -15.99 6.495 -17 7 C-17 7.66 -17 8.32 -17 9 C-15.87980469 9.32613281 -14.75960938 9.65226562 -13.60546875 9.98828125 C-12.13266203 10.42918517 -10.66001393 10.87061921 -9.1875 11.3125 C-8.44951172 11.52583984 -7.71152344 11.73917969 -6.95117188 11.95898438 C-5.88286133 12.28286133 -5.88286133 12.28286133 -4.79296875 12.61328125 C-3.81106567 12.90392456 -3.81106567 12.90392456 -2.80932617 13.20043945 C-0.66002905 14.15023679 0.50519783 15.19461819 2 17 C3.21762731 20.65288193 3.39075851 23.15754136 3 27 C0.15495446 31.30821182 -2.11802815 33.46386231 -7 35 C-14.94572146 35.874945 -21.30212362 35.50818603 -28 31 C-28.495 29.515 -28.495 29.515 -29 28 C-27.0625 24.8125 -27.0625 24.8125 -25 22 C-24.43152344 22.28875 -23.86304688 22.5775 -23.27734375 22.875 C-18.21356288 25.30967261 -14.61398967 26.47778636 -9 26 C-8.67 25.01 -8.34 24.02 -8 23 C-9.55460937 22.51080078 -9.55460937 22.51080078 -11.140625 22.01171875 C-12.5105468 21.57071653 -13.88033133 21.12928777 -15.25 20.6875 C-15.93191406 20.47416016 -16.61382812 20.26082031 -17.31640625 20.04101562 C-21.01414605 18.83835268 -24.17252894 17.7224907 -27 15 C-28.21762731 11.34711807 -28.39075851 8.84245864 -28 5 C-21.21825671 -5.26949698 -10.31645168 -4.97400349 0 0 Z " fill="#FE743D" transform="translate(419,29)"/>
<path d="M0 0 C1.175625 -0.01675781 2.35125 -0.03351562 3.5625 -0.05078125 C9.86505027 0.61528372 13.95030939 3.54815811 18 8.3125 C18 9.3025 18 10.2925 18 11.3125 C15 13.3125 15 13.3125 12 13.3125 C10.66666667 11.97916667 9.33333333 10.64583333 8 9.3125 C3.95698074 7.12708418 0.55311961 6.84947089 -4 7.3125 C-9.51899203 8.97345379 -13.35752106 11.76113527 -16.1484375 16.83984375 C-18.14862482 22.64772712 -18.23999179 29.06321539 -16.04296875 34.8203125 C-13.75280762 38.76084371 -11.34072427 41.67267083 -7 43.3125 C-2.12009084 44.35234642 1.69606415 44.78665849 6.4375 43.0625 C8.97844729 41.47776723 8.97844729 41.47776723 10.5625 39.5625 C11.036875 39.15 11.51125 38.7375 12 38.3125 C14.67479327 38.57345544 16.60095141 39.1129757 19 40.3125 C17.19820062 45.17735833 13.26583956 48.2140271 8.6875 50.43359375 C1.78206635 52.69191144 -5.85584786 52.28154887 -12.4375 49.25 C-19.30345362 45.27086779 -23.36796874 40.27979046 -25.52734375 32.625 C-27.1537783 24.66756814 -25.94044047 17.45783205 -22 10.3125 C-15.73960573 2.9948475 -9.6610578 0.0317798 0 0 Z " fill="#5358E8" transform="translate(121,12.6875)"/>
<path d="M0 0 C4.71372937 2.63856166 6.99572627 6.2996788 8.6875 11.375 C8.6875 14.015 8.6875 16.655 8.6875 19.375 C-0.5525 19.375 -9.7925 19.375 -19.3125 19.375 C-17.01073449 25.930228 -17.01073449 25.930228 -12.3125 29.375 C-5.9231346 31.25422512 -1.92079069 29.3381105 3.6875 26.375 C4.6775 27.365 5.6675 28.355 6.6875 29.375 C5.73026125 32.15099238 4.73404399 33.33977752 2.375 35.125 C-3.81528136 37.22340046 -10.52926534 37.66189557 -16.79296875 35.53125 C-21.02826976 33.1791879 -23.7990475 30.2166093 -25.68359375 25.74609375 C-27.16012343 20.17930174 -27.5056991 14.3873387 -25.359375 8.96875 C-19.7286528 -0.58209525 -10.44006443 -4.71171447 0 0 Z M-18.3125 9.375 C-18.6425 11.025 -18.9725 12.675 -19.3125 14.375 C-12.0525 14.375 -4.7925 14.375 2.6875 14.375 C0.42932033 7.80888259 0.42932033 7.80888259 -4.3125 4.375 C-10.9486783 3.51871893 -13.79576083 4.41760335 -18.3125 9.375 Z " fill="#5459E8" transform="translate(260.3125,27.625)"/>
<path d="M0 0 C3.3 0 6.6 0 10 0 C10 3.3 10 6.6 10 10 C12.31 10 14.62 10 17 10 C17 12.97 17 15.94 17 19 C14.69 19 12.38 19 10 19 C10.495 27.415 10.495 27.415 11 36 C14.63619656 37.08084521 14.63619656 37.08084521 17 37 C17.66 39.64 18.32 42.28 19 45 C15.72683609 47.18210927 14.45779281 47.34824318 10.625 47.4375 C9.22121094 47.49744141 9.22121094 47.49744141 7.7890625 47.55859375 C3.63420867 46.72645916 2.3781109 45.52217506 0 42 C-0.60216775 38.04262882 -0.4709665 34.17841779 -0.3125 30.1875 C-0.28994141 29.11306641 -0.26738281 28.03863281 -0.24414062 26.93164062 C-0.18535598 24.2863315 -0.10323957 21.64388587 0 19 C-1.98 19 -3.96 19 -6 19 C-6 16.03 -6 13.06 -6 10 C-4.02 10 -2.04 10 0 10 C0 6.7 0 3.4 0 0 Z " fill="#FD743D" transform="translate(430,17)"/>
<path d="M0 0 C3.85473746 3.41419604 5.03976833 7.0206099 5.42651367 12.03881836 C5.48244903 15.65538122 5.44895478 19.25880097 5.375 22.875 C5.35469727 24.75928711 5.35469727 24.75928711 5.33398438 26.68164062 C5.29878591 29.76737279 5.24954305 32.85221024 5.1875 35.9375 C2.8775 35.9375 0.5675 35.9375 -1.8125 35.9375 C-1.82708252 35.13530029 -1.84166504 34.33310059 -1.85668945 33.5065918 C-1.93106719 29.87890301 -2.02776243 26.25214496 -2.125 22.625 C-2.14755859 21.36236328 -2.17011719 20.09972656 -2.19335938 18.79882812 C-2.2465332 16.98608398 -2.2465332 16.98608398 -2.30078125 15.13671875 C-2.32696533 14.02127686 -2.35314941 12.90583496 -2.38012695 11.7565918 C-2.58795512 8.9332307 -2.58795512 8.9332307 -4.2097168 7.05908203 C-6.41459701 5.51616966 -7.68060956 5.75214885 -10.3125 6.125 C-11.0859375 6.22167969 -11.859375 6.31835938 -12.65625 6.41796875 C-15.08913183 6.87320994 -15.08913183 6.87320994 -17.8125 8.9375 C-18.32354922 11.74560144 -18.32354922 11.74560144 -18.32421875 15.0390625 C-18.35966797 16.25078125 -18.39511719 17.4625 -18.43164062 18.7109375 C-18.45419922 19.98195313 -18.47675781 21.25296875 -18.5 22.5625 C-18.53416016 23.84125 -18.56832031 25.12 -18.60351562 26.4375 C-18.68622479 29.60407932 -18.75530085 32.77037364 -18.8125 35.9375 C-21.1225 35.9375 -23.4325 35.9375 -25.8125 35.9375 C-25.8125 24.0575 -25.8125 12.1775 -25.8125 -0.0625 C-23.5025 -0.0625 -21.1925 -0.0625 -18.8125 -0.0625 C-18.8125 0.9275 -18.8125 1.9175 -18.8125 2.9375 C-18.08546875 2.504375 -18.08546875 2.504375 -17.34375 2.0625 C-11.36289316 -1.24997456 -6.66935474 -2.51953401 0 0 Z " fill="#5459E8" transform="translate(302.8125,27.0625)"/>
<path d="M0 0 C9.24 0 18.48 0 28 0 C28 6.74921956 28 6.74921956 25.5859375 9.8046875 C25.07160156 10.47113281 24.55726563 11.13757813 24.02734375 11.82421875 C23.20943359 12.83935547 23.20943359 12.83935547 22.375 13.875 C21.85292969 14.54402344 21.33085937 15.21304688 20.79296875 15.90234375 C19.74048028 17.25108823 18.68286906 18.59585118 17.62011719 19.93652344 C15.0208675 23.24708076 12.51445057 26.62474654 10 30 C16.27 30.33 22.54 30.66 29 31 C29 32.65 29 34.3 29 36 C19.43 36 9.86 36 0 36 C1.12497706 29.25013764 1.12497706 29.25013764 4.0546875 25.3984375 C4.97701172 24.16867188 4.97701172 24.16867188 5.91796875 22.9140625 C6.56378906 22.07617188 7.20960938 21.23828125 7.875 20.375 C8.51308594 19.529375 9.15117187 18.68375 9.80859375 17.8125 C10.99747331 16.23890993 12.1908205 14.66867766 13.39013672 13.10302734 C14.94000843 11.07836933 16.4733783 9.04222419 18 7 C16.78441406 6.93941406 15.56882813 6.87882812 14.31640625 6.81640625 C12.73175772 6.73201668 11.14712298 6.6473679 9.5625 6.5625 C8.76005859 6.52318359 7.95761719 6.48386719 7.13085938 6.44335938 C1.11328125 6.11328125 1.11328125 6.11328125 0 5 C0 3.35 0 1.7 0 0 Z " fill="#5257E8" transform="translate(199,27)"/>
<path d="M0 0 C0 3.3 0 6.6 0 10 C-1.27875 10.309375 -2.5575 10.61875 -3.875 10.9375 C-6.10101675 11.47605244 -7.94739999 11.9737 -10 13 C-10.33 20.92 -10.66 28.84 -11 37 C-14.63 37 -18.26 37 -22 37 C-22 25.12 -22 13.24 -22 1 C-18.37 1 -14.74 1 -11 1 C-10.67 1.66 -10.34 2.32 -10 3 C-8.63875 2.2575 -8.63875 2.2575 -7.25 1.5 C-4 0 -4 0 0 0 Z " fill="#FE723F" transform="translate(520,26)"/>
<path d="M0 0 C2.31 0 4.62 0 7 0 C7 3.3 7 6.6 7 10 C9.31 10 11.62 10 14 10 C14 11.98 14 13.96 14 16 C11.69 16 9.38 16 7 16 C7.33 23.92 7.66 31.84 8 40 C9.98 40 11.96 40 14 40 C14.66 41.65 15.32 43.3 16 45 C12.9642775 47.023815 12.04227513 47.33774253 8.5625 47.4375 C7.41974609 47.49744141 7.41974609 47.49744141 6.25390625 47.55859375 C2.85752392 46.71685601 1.89549564 44.86916372 0 42 C-0.45410156 39.0456543 -0.45410156 39.0456543 -0.390625 35.82421875 C-0.37773437 34.66728516 -0.36484375 33.51035156 -0.3515625 32.31835938 C-0.31804687 31.12017578 -0.28453125 29.92199219 -0.25 28.6875 C-0.23195312 27.46998047 -0.21390625 26.25246094 -0.1953125 24.99804688 C-0.14825131 21.99789578 -0.0825131 18.99935111 0 16 C-1.98 16 -3.96 16 -6 16 C-6 14.02 -6 12.04 -6 10 C-4.02 10 -2.04 10 0 10 C0 6.7 0 3.4 0 0 Z " fill="#5358E8" transform="translate(164,17)"/>
<path d="M0 0 C4.62 0 9.24 0 14 0 C14 0.99 14 1.98 14 3 C15.63631892 4.04892238 17.30485863 5.04906703 19 6 C20.54163175 9.0832635 20.29747535 11.60878099 20 15 C18.4375 16.9375 18.4375 16.9375 16 18 C13.69 18 11.38 18 9 18 C9 26.58 9 35.16 9 44 C8.01 44 7.02 44 6 44 C6 35.42 6 26.84 6 18 C3.69 18 1.38 18 -1 18 C-3.89854954 16.55072523 -4.74959072 15.63437018 -5.9375 12.625 C-6.01894966 9.20411409 -5.04433188 7.70143855 -3 5 C-2.01 4.34 -1.02 3.68 0 3 C0 2.01 0 1.02 0 0 Z M-2 9 C-1.62095792 12.29075996 -1.62095792 12.29075996 0 15 C1.99958364 15.04080783 4.00045254 15.04254356 6 15 C6 12.36 6 9.72 6 7 C2.28400809 6.79913557 1.22791555 6.8480563 -2 9 Z M9 7 C9 9.64 9 12.28 9 15 C12.465 14.505 12.465 14.505 16 14 C16.77242269 12.16299211 16.77242269 12.16299211 17 10 C15.96040481 8.12640605 15.96040481 8.12640605 14 7 C11.37429296 6.74930087 11.37429296 6.74930087 9 7 Z " fill="#FE743D" transform="translate(29,40)"/>
<path d="M0 0 C1.98 0 3.96 0 6 0 C6 11.88 6 23.76 6 36 C4.02 36 2.04 36 0 36 C0 24.12 0 12.24 0 0 Z " fill="#5458E7" transform="translate(185,27)"/>
<path d="M0 0 C1.98 0 3.96 0 6 0 C6 11.88 6 23.76 6 36 C4.02 36 2.04 36 0 36 C0 24.12 0 12.24 0 0 Z " fill="#5358E8" transform="translate(147,27)"/>
<path d="M0 0 C2.6875 0.875 2.6875 0.875 5 2 C5.125 4.375 5.125 4.375 5 7 C4.34 7.66 3.68 8.32 3 9 C-1.55555556 8.44444444 -1.55555556 8.44444444 -3 7 C-3.25 4.5625 -3.25 4.5625 -3 2 C-2.01 1.34 -1.02 0.68 0 0 Z " fill="#5559E7" transform="translate(187,14)"/>
<path d="M0 0 C2.6875 0.875 2.6875 0.875 5 2 C5.125 4.375 5.125 4.375 5 7 C4.34 7.66 3.68 8.32 3 9 C-1.55555556 8.44444444 -1.55555556 8.44444444 -3 7 C-3.25 4.5625 -3.25 4.5625 -3 2 C-2.01 1.34 -1.02 0.68 0 0 Z " fill="#5256E7" transform="translate(149,14)"/>
</svg>
